<svg width="330" height="343.715" viewBox="0 0 87.313 90.941" xmlns="http://www.w3.org/2000/svg"><path d="M1.323 0v7.219l13.23 6.614L27.78 7.22V0zm29.104 0v7.219l13.23 6.614L56.884 7.22V0zm29.104 0v6.615l13.23 6.614L85.99 6.615V0zM0 10.243v26.459l13.23-6.615v-13.23zm29.104 0l-13.229 6.615v13.229l13.23 6.615 13.228-6.615v-13.23zm29.104 0L44.98 16.858v13.229l13.23 6.615 13.229-6.615v-13.23zm29.104 0l-13.229 6.615v13.229l13.23 6.615zm-72.76 22.49l-13.23 6.614v13.23l13.23 6.614 13.23-6.614v-13.23zm29.104 0l-13.229 6.614v13.23l13.23 6.614 13.228-6.614v-13.23zm29.104 0l-13.229 6.614v13.23l13.23 6.614 13.229-6.614v-13.23zM0 55.223V81.68l13.23-6.615V61.837zm29.104 0l-13.229 6.614v13.23l13.23 6.614 13.228-6.615V61.837zm29.104 0L44.98 61.836v13.23l13.23 6.614 13.229-6.615V61.837zm29.104 0l-13.229 6.614v13.23l13.23 6.614zm-72.76 22.489l-13.23 6.615v6.614h26.46v-6.614zm29.104 0l-13.229 6.615v6.614h26.458v-6.614zm29.104 0l-13.229 6.615v6.614H85.99v-6.614z" fill="#242424"/></svg>